<mxfile host="app.diagrams.net" agent="Mozilla/5.0 (Windows NT 10.0; Win64; x64) AppleWebKit/537.36 (KHTML, like Gecko) Chrome/138.0.0.0 Safari/537.36 Edg/138.0.0.0" version="28.0.6">
  <diagram name="Page-1" id="tfbriVcvxnr1cnra4_Y5">
    <mxGraphModel dx="1418" dy="794" grid="1" gridSize="10" guides="1" tooltips="1" connect="1" arrows="1" fold="1" page="1" pageScale="1" pageWidth="850" pageHeight="1100" math="0" shadow="0">
      <root>
        <mxCell id="0" />
        <mxCell id="1" parent="0" />
        <mxCell id="tndDzJW4W_1LfR0DdtwH-4" value="" style="edgeStyle=orthogonalEdgeStyle;rounded=0;orthogonalLoop=1;jettySize=auto;html=1;" edge="1" parent="1" source="tndDzJW4W_1LfR0DdtwH-1" target="tndDzJW4W_1LfR0DdtwH-3">
          <mxGeometry relative="1" as="geometry" />
        </mxCell>
        <mxCell id="tndDzJW4W_1LfR0DdtwH-1" value="เริ่ม" style="ellipse;whiteSpace=wrap;html=1;" vertex="1" parent="1">
          <mxGeometry x="407.49" y="60" width="90" height="60" as="geometry" />
        </mxCell>
        <mxCell id="tndDzJW4W_1LfR0DdtwH-12" value="" style="edgeStyle=orthogonalEdgeStyle;rounded=0;orthogonalLoop=1;jettySize=auto;html=1;" edge="1" parent="1" source="tndDzJW4W_1LfR0DdtwH-3" target="tndDzJW4W_1LfR0DdtwH-11">
          <mxGeometry relative="1" as="geometry" />
        </mxCell>
        <mxCell id="tndDzJW4W_1LfR0DdtwH-3" value="show &quot;Enter Value: &quot;" style="shape=parallelogram;perimeter=parallelogramPerimeter;whiteSpace=wrap;html=1;fixedSize=1;" vertex="1" parent="1">
          <mxGeometry x="385.62" y="150" width="133.75" height="50" as="geometry" />
        </mxCell>
        <mxCell id="tndDzJW4W_1LfR0DdtwH-16" value="" style="edgeStyle=orthogonalEdgeStyle;rounded=0;orthogonalLoop=1;jettySize=auto;html=1;" edge="1" parent="1" source="tndDzJW4W_1LfR0DdtwH-11" target="tndDzJW4W_1LfR0DdtwH-15">
          <mxGeometry relative="1" as="geometry" />
        </mxCell>
        <mxCell id="tndDzJW4W_1LfR0DdtwH-11" value="รับค่า N" style="shape=parallelogram;perimeter=parallelogramPerimeter;whiteSpace=wrap;html=1;fixedSize=1;" vertex="1" parent="1">
          <mxGeometry x="392.495" y="230" width="120" height="60" as="geometry" />
        </mxCell>
        <mxCell id="tndDzJW4W_1LfR0DdtwH-20" value="" style="edgeStyle=orthogonalEdgeStyle;rounded=0;orthogonalLoop=1;jettySize=auto;html=1;" edge="1" parent="1" source="tndDzJW4W_1LfR0DdtwH-15" target="tndDzJW4W_1LfR0DdtwH-19">
          <mxGeometry relative="1" as="geometry" />
        </mxCell>
        <mxCell id="tndDzJW4W_1LfR0DdtwH-15" value="check N เป็น integer ไหม" style="rhombus;whiteSpace=wrap;html=1;" vertex="1" parent="1">
          <mxGeometry x="399.99" y="310" width="105.01" height="100" as="geometry" />
        </mxCell>
        <mxCell id="tndDzJW4W_1LfR0DdtwH-17" value="show &quot;Invalid input. Please enter integer&quot;" style="shape=parallelogram;perimeter=parallelogramPerimeter;whiteSpace=wrap;html=1;fixedSize=1;" vertex="1" parent="1">
          <mxGeometry x="160" y="330" width="209.99" height="60" as="geometry" />
        </mxCell>
        <mxCell id="tndDzJW4W_1LfR0DdtwH-24" value="" style="edgeStyle=orthogonalEdgeStyle;rounded=0;orthogonalLoop=1;jettySize=auto;html=1;" edge="1" parent="1" source="tndDzJW4W_1LfR0DdtwH-19" target="tndDzJW4W_1LfR0DdtwH-23">
          <mxGeometry relative="1" as="geometry" />
        </mxCell>
        <mxCell id="tndDzJW4W_1LfR0DdtwH-26" value="" style="edgeStyle=orthogonalEdgeStyle;rounded=0;orthogonalLoop=1;jettySize=auto;html=1;" edge="1" parent="1" source="tndDzJW4W_1LfR0DdtwH-19" target="tndDzJW4W_1LfR0DdtwH-25">
          <mxGeometry relative="1" as="geometry" />
        </mxCell>
        <mxCell id="tndDzJW4W_1LfR0DdtwH-19" value="N % 2 = 1&amp;nbsp;" style="rhombus;whiteSpace=wrap;html=1;" vertex="1" parent="1">
          <mxGeometry x="412.495" y="440" width="80" height="80" as="geometry" />
        </mxCell>
        <mxCell id="tndDzJW4W_1LfR0DdtwH-67" value="" style="edgeStyle=orthogonalEdgeStyle;rounded=0;orthogonalLoop=1;jettySize=auto;html=1;entryX=0.51;entryY=0.267;entryDx=0;entryDy=0;entryPerimeter=0;" edge="1" parent="1" source="tndDzJW4W_1LfR0DdtwH-23" target="tndDzJW4W_1LfR0DdtwH-58">
          <mxGeometry relative="1" as="geometry" />
        </mxCell>
        <mxCell id="tndDzJW4W_1LfR0DdtwH-23" value="กำหนดให้ i = N" style="whiteSpace=wrap;html=1;" vertex="1" parent="1">
          <mxGeometry x="559.015" y="450" width="120" height="60" as="geometry" />
        </mxCell>
        <mxCell id="tndDzJW4W_1LfR0DdtwH-34" value="" style="edgeStyle=orthogonalEdgeStyle;rounded=0;orthogonalLoop=1;jettySize=auto;html=1;entryX=0.5;entryY=0;entryDx=0;entryDy=0;" edge="1" parent="1" source="tndDzJW4W_1LfR0DdtwH-25" target="tndDzJW4W_1LfR0DdtwH-33">
          <mxGeometry relative="1" as="geometry" />
        </mxCell>
        <mxCell id="tndDzJW4W_1LfR0DdtwH-25" value="กำหนดให้ i = 1" style="whiteSpace=wrap;html=1;" vertex="1" parent="1">
          <mxGeometry x="392.485" y="540" width="120" height="60" as="geometry" />
        </mxCell>
        <mxCell id="tndDzJW4W_1LfR0DdtwH-30" value="" style="edgeStyle=orthogonalEdgeStyle;rounded=0;orthogonalLoop=1;jettySize=auto;html=1;" edge="1" parent="1" source="tndDzJW4W_1LfR0DdtwH-27" target="tndDzJW4W_1LfR0DdtwH-29">
          <mxGeometry relative="1" as="geometry" />
        </mxCell>
        <mxCell id="tndDzJW4W_1LfR0DdtwH-27" value="&lt;font style=&quot;font-size: 8px;&quot;&gt;i น้อยกว่า&lt;/font&gt;&lt;div&gt;&lt;font style=&quot;font-size: 8px;&quot;&gt;หรือเท่า&lt;/font&gt;&lt;/div&gt;&lt;div&gt;&lt;font style=&quot;font-size: 8px;&quot;&gt;กับ N มั้ย?&lt;/font&gt;&lt;/div&gt;" style="rhombus;whiteSpace=wrap;html=1;" vertex="1" parent="1">
          <mxGeometry x="412.495" y="640" width="80" height="80" as="geometry" />
        </mxCell>
        <mxCell id="tndDzJW4W_1LfR0DdtwH-32" value="" style="edgeStyle=orthogonalEdgeStyle;rounded=0;orthogonalLoop=1;jettySize=auto;html=1;" edge="1" parent="1" source="tndDzJW4W_1LfR0DdtwH-29" target="tndDzJW4W_1LfR0DdtwH-31">
          <mxGeometry relative="1" as="geometry" />
        </mxCell>
        <mxCell id="tndDzJW4W_1LfR0DdtwH-29" value="show &quot;%d &quot; , i" style="shape=parallelogram;perimeter=parallelogramPerimeter;whiteSpace=wrap;html=1;fixedSize=1;" vertex="1" parent="1">
          <mxGeometry x="392.495" y="740" width="120" height="60" as="geometry" />
        </mxCell>
        <mxCell id="tndDzJW4W_1LfR0DdtwH-42" value="" style="edgeStyle=orthogonalEdgeStyle;rounded=0;orthogonalLoop=1;jettySize=auto;html=1;entryX=0.5;entryY=0;entryDx=0;entryDy=0;" edge="1" parent="1" source="tndDzJW4W_1LfR0DdtwH-31" target="tndDzJW4W_1LfR0DdtwH-41">
          <mxGeometry relative="1" as="geometry" />
        </mxCell>
        <mxCell id="tndDzJW4W_1LfR0DdtwH-31" value="ให้ i บวกเพิ่ม 2 แล้วให้เก็บเข้าใน i" style="whiteSpace=wrap;html=1;" vertex="1" parent="1">
          <mxGeometry x="392.485" y="830" width="120" height="60" as="geometry" />
        </mxCell>
        <mxCell id="tndDzJW4W_1LfR0DdtwH-36" value="" style="edgeStyle=orthogonalEdgeStyle;rounded=0;orthogonalLoop=1;jettySize=auto;html=1;entryX=0.5;entryY=0;entryDx=0;entryDy=0;" edge="1" parent="1" target="tndDzJW4W_1LfR0DdtwH-27">
          <mxGeometry relative="1" as="geometry">
            <mxPoint x="452.37" y="621.99" as="sourcePoint" />
            <mxPoint x="452.375" y="635.99" as="targetPoint" />
          </mxGeometry>
        </mxCell>
        <mxCell id="tndDzJW4W_1LfR0DdtwH-33" value="" style="ellipse;whiteSpace=wrap;html=1;aspect=fixed;" vertex="1" parent="1">
          <mxGeometry x="447.49" y="616" width="10" height="10" as="geometry" />
        </mxCell>
        <mxCell id="tndDzJW4W_1LfR0DdtwH-37" value="" style="endArrow=none;html=1;rounded=0;exitX=0;exitY=0.5;exitDx=0;exitDy=0;" edge="1" parent="1" source="tndDzJW4W_1LfR0DdtwH-31">
          <mxGeometry width="50" height="50" relative="1" as="geometry">
            <mxPoint x="525.62" y="790" as="sourcePoint" />
            <mxPoint x="365.62" y="860" as="targetPoint" />
          </mxGeometry>
        </mxCell>
        <mxCell id="tndDzJW4W_1LfR0DdtwH-38" value="" style="endArrow=none;html=1;rounded=0;" edge="1" parent="1">
          <mxGeometry width="50" height="50" relative="1" as="geometry">
            <mxPoint x="365.62" y="860" as="sourcePoint" />
            <mxPoint x="365.62" y="620" as="targetPoint" />
          </mxGeometry>
        </mxCell>
        <mxCell id="tndDzJW4W_1LfR0DdtwH-39" value="" style="endArrow=classic;html=1;rounded=0;entryX=0;entryY=0.5;entryDx=0;entryDy=0;" edge="1" parent="1" target="tndDzJW4W_1LfR0DdtwH-33">
          <mxGeometry width="50" height="50" relative="1" as="geometry">
            <mxPoint x="365.62" y="620" as="sourcePoint" />
            <mxPoint x="575.62" y="740" as="targetPoint" />
          </mxGeometry>
        </mxCell>
        <mxCell id="tndDzJW4W_1LfR0DdtwH-40" value="จบ" style="ellipse;whiteSpace=wrap;html=1;" vertex="1" parent="1">
          <mxGeometry x="411.56" y="940" width="81.87" height="50" as="geometry" />
        </mxCell>
        <mxCell id="tndDzJW4W_1LfR0DdtwH-41" value="" style="ellipse;whiteSpace=wrap;html=1;aspect=fixed;" vertex="1" parent="1">
          <mxGeometry x="447.49" y="914" width="10" height="10" as="geometry" />
        </mxCell>
        <mxCell id="tndDzJW4W_1LfR0DdtwH-46" value="" style="endArrow=none;html=1;rounded=0;exitX=1;exitY=0.5;exitDx=0;exitDy=0;" edge="1" parent="1" source="tndDzJW4W_1LfR0DdtwH-27">
          <mxGeometry width="50" height="50" relative="1" as="geometry">
            <mxPoint x="475.62" y="810" as="sourcePoint" />
            <mxPoint x="525.62" y="680" as="targetPoint" />
          </mxGeometry>
        </mxCell>
        <mxCell id="tndDzJW4W_1LfR0DdtwH-48" value="" style="endArrow=none;html=1;rounded=0;" edge="1" parent="1">
          <mxGeometry width="50" height="50" relative="1" as="geometry">
            <mxPoint x="525.62" y="900" as="sourcePoint" />
            <mxPoint x="525.62" y="680" as="targetPoint" />
          </mxGeometry>
        </mxCell>
        <mxCell id="tndDzJW4W_1LfR0DdtwH-49" value="" style="endArrow=none;html=1;rounded=0;" edge="1" parent="1">
          <mxGeometry width="50" height="50" relative="1" as="geometry">
            <mxPoint x="525.62" y="900" as="sourcePoint" />
            <mxPoint x="465.62" y="900" as="targetPoint" />
          </mxGeometry>
        </mxCell>
        <mxCell id="tndDzJW4W_1LfR0DdtwH-50" value="" style="endArrow=classic;html=1;rounded=0;entryX=1;entryY=0;entryDx=0;entryDy=0;" edge="1" parent="1" target="tndDzJW4W_1LfR0DdtwH-41">
          <mxGeometry width="50" height="50" relative="1" as="geometry">
            <mxPoint x="465.62" y="900" as="sourcePoint" />
            <mxPoint x="525.62" y="760" as="targetPoint" />
          </mxGeometry>
        </mxCell>
        <mxCell id="tndDzJW4W_1LfR0DdtwH-51" value="" style="edgeStyle=orthogonalEdgeStyle;rounded=0;orthogonalLoop=1;jettySize=auto;html=1;" edge="1" parent="1" source="tndDzJW4W_1LfR0DdtwH-52" target="tndDzJW4W_1LfR0DdtwH-54">
          <mxGeometry relative="1" as="geometry" />
        </mxCell>
        <mxCell id="tndDzJW4W_1LfR0DdtwH-52" value="&lt;font style=&quot;font-size: 8px;&quot;&gt;i มากกว่า&lt;/font&gt;&lt;div&gt;&lt;font style=&quot;font-size: 8px;&quot;&gt;หรือเท่า&lt;/font&gt;&lt;/div&gt;&lt;div&gt;&lt;font style=&quot;font-size: 8px;&quot;&gt;กับ N มั้ย?&lt;/font&gt;&lt;/div&gt;" style="rhombus;whiteSpace=wrap;html=1;" vertex="1" parent="1">
          <mxGeometry x="579.025" y="552" width="80" height="80" as="geometry" />
        </mxCell>
        <mxCell id="tndDzJW4W_1LfR0DdtwH-53" value="" style="edgeStyle=orthogonalEdgeStyle;rounded=0;orthogonalLoop=1;jettySize=auto;html=1;" edge="1" parent="1" source="tndDzJW4W_1LfR0DdtwH-54" target="tndDzJW4W_1LfR0DdtwH-56">
          <mxGeometry relative="1" as="geometry" />
        </mxCell>
        <mxCell id="tndDzJW4W_1LfR0DdtwH-54" value="show &quot;%d &quot; , i" style="shape=parallelogram;perimeter=parallelogramPerimeter;whiteSpace=wrap;html=1;fixedSize=1;" vertex="1" parent="1">
          <mxGeometry x="559.025" y="652" width="120" height="60" as="geometry" />
        </mxCell>
        <mxCell id="tndDzJW4W_1LfR0DdtwH-56" value="ให้ i ลบเพิ่ม 2 แล้วให้เก็บเข้าใน i" style="whiteSpace=wrap;html=1;" vertex="1" parent="1">
          <mxGeometry x="559.015" y="742" width="120" height="60" as="geometry" />
        </mxCell>
        <mxCell id="tndDzJW4W_1LfR0DdtwH-57" value="" style="edgeStyle=orthogonalEdgeStyle;rounded=0;orthogonalLoop=1;jettySize=auto;html=1;entryX=0.5;entryY=0;entryDx=0;entryDy=0;" edge="1" parent="1" target="tndDzJW4W_1LfR0DdtwH-58">
          <mxGeometry relative="1" as="geometry">
            <mxPoint x="618.9" y="533.99" as="sourcePoint" />
            <mxPoint x="618.905" y="547.99" as="targetPoint" />
          </mxGeometry>
        </mxCell>
        <mxCell id="tndDzJW4W_1LfR0DdtwH-58" value="" style="ellipse;whiteSpace=wrap;html=1;aspect=fixed;" vertex="1" parent="1">
          <mxGeometry x="614.02" y="528" width="10" height="10" as="geometry" />
        </mxCell>
        <mxCell id="tndDzJW4W_1LfR0DdtwH-59" value="" style="endArrow=none;html=1;rounded=0;exitX=0;exitY=0.5;exitDx=0;exitDy=0;" edge="1" parent="1" source="tndDzJW4W_1LfR0DdtwH-56">
          <mxGeometry width="50" height="50" relative="1" as="geometry">
            <mxPoint x="692.15" y="702" as="sourcePoint" />
            <mxPoint x="532.15" y="772" as="targetPoint" />
          </mxGeometry>
        </mxCell>
        <mxCell id="tndDzJW4W_1LfR0DdtwH-60" value="" style="endArrow=none;html=1;rounded=0;" edge="1" parent="1">
          <mxGeometry width="50" height="50" relative="1" as="geometry">
            <mxPoint x="532.15" y="772" as="sourcePoint" />
            <mxPoint x="532.15" y="532" as="targetPoint" />
          </mxGeometry>
        </mxCell>
        <mxCell id="tndDzJW4W_1LfR0DdtwH-61" value="" style="endArrow=classic;html=1;rounded=0;entryX=0;entryY=0.5;entryDx=0;entryDy=0;" edge="1" parent="1" target="tndDzJW4W_1LfR0DdtwH-58">
          <mxGeometry width="50" height="50" relative="1" as="geometry">
            <mxPoint x="532.15" y="532" as="sourcePoint" />
            <mxPoint x="742.15" y="652" as="targetPoint" />
          </mxGeometry>
        </mxCell>
        <mxCell id="tndDzJW4W_1LfR0DdtwH-63" value="" style="endArrow=none;html=1;rounded=0;exitX=1;exitY=0.5;exitDx=0;exitDy=0;" edge="1" parent="1" source="tndDzJW4W_1LfR0DdtwH-52">
          <mxGeometry width="50" height="50" relative="1" as="geometry">
            <mxPoint x="642.15" y="722" as="sourcePoint" />
            <mxPoint x="685.62" y="592" as="targetPoint" />
          </mxGeometry>
        </mxCell>
        <mxCell id="tndDzJW4W_1LfR0DdtwH-64" value="" style="endArrow=none;html=1;rounded=0;" edge="1" parent="1">
          <mxGeometry width="50" height="50" relative="1" as="geometry">
            <mxPoint x="685.62" y="920" as="sourcePoint" />
            <mxPoint x="685.62" y="592" as="targetPoint" />
          </mxGeometry>
        </mxCell>
        <mxCell id="tndDzJW4W_1LfR0DdtwH-70" value="" style="endArrow=classic;html=1;rounded=0;entryX=1;entryY=0.5;entryDx=0;entryDy=0;" edge="1" parent="1" target="tndDzJW4W_1LfR0DdtwH-41">
          <mxGeometry width="50" height="50" relative="1" as="geometry">
            <mxPoint x="685.62" y="919" as="sourcePoint" />
            <mxPoint x="595.62" y="750" as="targetPoint" />
          </mxGeometry>
        </mxCell>
        <mxCell id="tndDzJW4W_1LfR0DdtwH-72" value="" style="endArrow=classic;html=1;rounded=0;entryX=0.5;entryY=0;entryDx=0;entryDy=0;exitX=0.5;exitY=1;exitDx=0;exitDy=0;" edge="1" parent="1" source="tndDzJW4W_1LfR0DdtwH-58" target="tndDzJW4W_1LfR0DdtwH-52">
          <mxGeometry width="50" height="50" relative="1" as="geometry">
            <mxPoint x="575.62" y="590" as="sourcePoint" />
            <mxPoint x="625.62" y="540" as="targetPoint" />
          </mxGeometry>
        </mxCell>
        <mxCell id="tndDzJW4W_1LfR0DdtwH-74" value="" style="endArrow=classic;html=1;rounded=0;exitX=0.5;exitY=1;exitDx=0;exitDy=0;entryX=0.5;entryY=0;entryDx=0;entryDy=0;" edge="1" parent="1" source="tndDzJW4W_1LfR0DdtwH-41" target="tndDzJW4W_1LfR0DdtwH-40">
          <mxGeometry width="50" height="50" relative="1" as="geometry">
            <mxPoint x="565.62" y="940" as="sourcePoint" />
            <mxPoint x="615.62" y="890" as="targetPoint" />
          </mxGeometry>
        </mxCell>
        <mxCell id="tndDzJW4W_1LfR0DdtwH-77" value="" style="endArrow=classic;html=1;rounded=0;entryX=1;entryY=0.5;entryDx=0;entryDy=0;exitX=0;exitY=0.5;exitDx=0;exitDy=0;" edge="1" parent="1" source="tndDzJW4W_1LfR0DdtwH-15" target="tndDzJW4W_1LfR0DdtwH-17">
          <mxGeometry width="50" height="50" relative="1" as="geometry">
            <mxPoint x="310" y="520" as="sourcePoint" />
            <mxPoint x="360" y="470" as="targetPoint" />
          </mxGeometry>
        </mxCell>
        <mxCell id="tndDzJW4W_1LfR0DdtwH-79" value="" style="endArrow=classic;html=1;rounded=0;entryX=0;entryY=0.5;entryDx=0;entryDy=0;" edge="1" parent="1" target="tndDzJW4W_1LfR0DdtwH-41">
          <mxGeometry width="50" height="50" relative="1" as="geometry">
            <mxPoint x="260" y="920" as="sourcePoint" />
            <mxPoint x="380" y="740" as="targetPoint" />
          </mxGeometry>
        </mxCell>
        <mxCell id="tndDzJW4W_1LfR0DdtwH-80" value="" style="endArrow=none;html=1;rounded=0;entryX=0.5;entryY=1;entryDx=0;entryDy=0;" edge="1" parent="1" target="tndDzJW4W_1LfR0DdtwH-17">
          <mxGeometry width="50" height="50" relative="1" as="geometry">
            <mxPoint x="260" y="920" as="sourcePoint" />
            <mxPoint x="420" y="670" as="targetPoint" />
          </mxGeometry>
        </mxCell>
        <mxCell id="tndDzJW4W_1LfR0DdtwH-81" value="Yes" style="text;html=1;align=center;verticalAlign=middle;resizable=0;points=[];autosize=1;strokeColor=none;fillColor=none;" vertex="1" parent="1">
          <mxGeometry x="450" y="408" width="40" height="30" as="geometry" />
        </mxCell>
        <mxCell id="tndDzJW4W_1LfR0DdtwH-82" value="No" style="text;html=1;align=center;verticalAlign=middle;resizable=0;points=[];autosize=1;strokeColor=none;fillColor=none;" vertex="1" parent="1">
          <mxGeometry x="371.56" y="330" width="40" height="30" as="geometry" />
        </mxCell>
        <mxCell id="tndDzJW4W_1LfR0DdtwH-83" value="No" style="text;html=1;align=center;verticalAlign=middle;resizable=0;points=[];autosize=1;strokeColor=none;fillColor=none;" vertex="1" parent="1">
          <mxGeometry x="650" y="558" width="40" height="30" as="geometry" />
        </mxCell>
        <mxCell id="tndDzJW4W_1LfR0DdtwH-84" value="Yes" style="text;html=1;align=center;verticalAlign=middle;resizable=0;points=[];autosize=1;strokeColor=none;fillColor=none;" vertex="1" parent="1">
          <mxGeometry x="624.02" y="616" width="40" height="30" as="geometry" />
        </mxCell>
        <mxCell id="tndDzJW4W_1LfR0DdtwH-85" value="Yes" style="text;html=1;align=center;verticalAlign=middle;resizable=0;points=[];autosize=1;strokeColor=none;fillColor=none;" vertex="1" parent="1">
          <mxGeometry x="450" y="710" width="40" height="30" as="geometry" />
        </mxCell>
        <mxCell id="tndDzJW4W_1LfR0DdtwH-86" value="No" style="text;html=1;align=center;verticalAlign=middle;resizable=0;points=[];autosize=1;strokeColor=none;fillColor=none;" vertex="1" parent="1">
          <mxGeometry x="490" y="648" width="40" height="30" as="geometry" />
        </mxCell>
        <mxCell id="tndDzJW4W_1LfR0DdtwH-88" value="No" style="text;html=1;align=center;verticalAlign=middle;resizable=0;points=[];autosize=1;strokeColor=none;fillColor=none;" vertex="1" parent="1">
          <mxGeometry x="497" y="453" width="40" height="30" as="geometry" />
        </mxCell>
        <mxCell id="tndDzJW4W_1LfR0DdtwH-89" value="Yes" style="text;html=1;align=center;verticalAlign=middle;resizable=0;points=[];autosize=1;strokeColor=none;fillColor=none;" vertex="1" parent="1">
          <mxGeometry x="450" y="512" width="40" height="30" as="geometry" />
        </mxCell>
      </root>
    </mxGraphModel>
  </diagram>
</mxfile>
